<?xml version="1.0" standalone="no"?>
<!DOCTYPE svg PUBLIC "-//W3C//DTD SVG 20010904//EN"
 "http://www.w3.org/TR/2001/REC-SVG-20010904/DTD/svg10.dtd">
<svg version="1.0" xmlns="http://www.w3.org/2000/svg"
 width="50.000000pt" height="50.000000pt" viewBox="0 0 50.000000 50.000000"
 preserveAspectRatio="xMidYMid meet">

<g transform="translate(0.000000,50.000000) scale(0.100000,-0.100000)"
fill="#fff" stroke="none">
<path d="M123 480 c-41 -25 -42 -40 -3 -40 25 0 30 -4 30 -25 0 -21 -5 -25
-30 -25 -33 0 -38 -11 -15 -30 13 -11 14 -15 1 -29 -8 -9 -16 -25 -17 -35 -3
-12 -16 -23 -37 -28 -24 -7 -32 -14 -32 -32 0 -12 3 -26 7 -30 4 -3 8 -32 9
-64 1 -31 5 -72 9 -90 6 -28 5 -32 -13 -32 -12 0 -24 -4 -27 -10 -4 -7 80 -10
245 -10 165 0 249 3 245 10 -3 6 -15 10 -27 10 -18 0 -19 4 -13 32 4 18 8 59
9 90 1 32 5 61 9 64 4 4 7 18 7 30 0 18 -8 25 -32 32 -21 5 -34 16 -36 28 -2
10 -13 29 -25 42 -17 18 -32 22 -91 24 l-71 1 72 6 c82 7 116 28 97 59 -8 13
-28 18 -79 20 -58 3 -72 7 -91 27 -28 30 -58 32 -101 5z m92 -20 c13 -15 33
-20 89 -22 63 -3 71 -5 71 -23 0 -18 -8 -20 -69 -23 -59 -3 -73 -7 -93 -28
-23 -25 -43 -26 -83 -3 -13 7 -12 8 2 9 41 0 47 80 6 80 -17 0 -18 2 -8 15 18
21 64 19 85 -5z m162 -132 c6 -7 18 -33 26 -56 12 -36 13 -44 2 -48 -7 -3 -23
4 -34 15 -26 26 -46 27 -68 1 -15 -17 -30 -20 -114 -20 -52 0 -98 2 -101 5 -6
6 19 84 32 100 14 16 244 19 257 3z m-313 -93 c-4 -8 -12 -15 -20 -15 -8 0
-14 7 -14 15 0 8 9 15 20 15 13 0 18 -5 14 -15z m406 0 c0 -8 -6 -15 -14 -15
-8 0 -16 7 -20 15 -4 10 1 15 14 15 11 0 20 -7 20 -15z m-115 -5 c4 -6 -5 -10
-20 -10 -15 0 -24 4 -20 10 3 6 12 10 20 10 8 0 17 -4 20 -10z m85 -37 c0 -7
-9 -13 -21 -13 -28 0 -59 -18 -59 -34 0 -17 22 -26 61 -26 22 0 29 -5 29 -20
0 -19 -7 -20 -200 -20 -193 0 -200 1 -200 20 0 15 7 20 29 20 39 0 61 9 61 26
0 16 -31 34 -59 34 -12 0 -21 6 -21 13 0 9 45 12 190 12 145 0 190 -3 190 -12z
m-332 -33 c6 0 12 -4 12 -10 0 -5 -16 -10 -35 -10 -26 0 -35 4 -35 16 0 12 6
15 23 10 12 -3 28 -6 35 -6z m342 -5 c0 -10 -11 -15 -35 -15 -39 0 -48 16 -12
23 41 8 47 7 47 -8z m-340 -115 c0 -15 -7 -20 -25 -20 -18 0 -25 5 -25 20 0
15 7 20 25 20 18 0 25 -5 25 -20z m260 16 c0 -2 3 -11 6 -20 5 -14 -10 -16
-125 -16 -72 0 -131 2 -131 4 0 2 3 11 6 20 5 13 26 16 125 16 65 0 119 -2
119 -4z m70 -16 c0 -15 -7 -20 -25 -20 -18 0 -25 5 -25 20 0 15 7 20 25 20 18
0 25 -5 25 -20z"/>
<path d="M192 410 c0 -19 2 -27 5 -17 2 9 2 25 0 35 -3 9 -5 1 -5 -18z"/>
<path d="M238 303 c6 -2 18 -2 25 0 6 3 1 5 -13 5 -14 0 -19 -2 -12 -5z"/>
<path d="M160 140 c0 -5 5 -10 10 -10 6 0 10 5 10 10 0 6 -4 10 -10 10 -5 0
-10 -4 -10 -10z"/>
<path d="M200 140 c0 -5 5 -10 10 -10 6 0 10 5 10 10 0 6 -4 10 -10 10 -5 0
-10 -4 -10 -10z"/>
<path d="M240 140 c0 -5 5 -10 10 -10 6 0 10 5 10 10 0 6 -4 10 -10 10 -5 0
-10 -4 -10 -10z"/>
<path d="M280 140 c0 -5 5 -10 10 -10 6 0 10 5 10 10 0 6 -4 10 -10 10 -5 0
-10 -4 -10 -10z"/>
<path d="M320 140 c0 -5 5 -10 10 -10 6 0 10 5 10 10 0 6 -4 10 -10 10 -5 0
-10 -4 -10 -10z"/>
<path d="M65 100 c3 -5 12 -10 20 -10 8 0 17 5 20 10 4 6 -5 10 -20 10 -15 0
-24 -4 -20 -10z"/>
<path d="M130 100 c0 -6 47 -10 120 -10 73 0 120 4 120 10 0 6 -47 10 -120 10
-73 0 -120 -4 -120 -10z"/>
<path d="M395 100 c3 -5 12 -10 20 -10 8 0 17 5 20 10 4 6 -5 10 -20 10 -15 0
-24 -4 -20 -10z"/>
</g>
</svg>
