<?xml version="1.0" standalone="no"?>
<!DOCTYPE svg PUBLIC "-//W3C//DTD SVG 20010904//EN"
 "http://www.w3.org/TR/2001/REC-SVG-20010904/DTD/svg10.dtd">
<svg version="1.0" xmlns="http://www.w3.org/2000/svg"
 width="50.000000pt" height="50.000000pt" viewBox="0 0 50.000000 50.000000"
 preserveAspectRatio="xMidYMid meet">

<g transform="translate(0.000000,50.000000) scale(0.100000,-0.100000)"
fill="#fff" stroke="none">
<path d="M171 476 c-47 -17 -108 -71 -131 -117 -50 -98 -35 -196 44 -274 102
-101 230 -101 331 0 102 101 102 229 0 330 -70 71 -157 93 -244 61z m72 -8 c4
-10 7 -10 14 0 12 16 73 4 73 -15 0 -8 5 -11 11 -7 17 10 61 -18 56 -37 -3
-11 1 -15 12 -12 23 6 55 -49 38 -66 -9 -10 -9 -12 2 -9 20 4 38 -52 20 -63
-11 -7 -11 -11 -1 -17 17 -11 4 -72 -15 -72 -8 0 -11 -5 -7 -11 10 -17 -18
-61 -37 -56 -11 3 -15 -1 -12 -12 6 -23 -49 -55 -66 -38 -10 9 -12 9 -9 -2 4
-20 -52 -38 -63 -20 -7 11 -11 11 -17 1 -11 -17 -72 -4 -72 15 0 8 -5 11 -11
7 -17 -10 -61 18 -56 37 3 11 -1 15 -12 12 -23 -6 -55 49 -38 66 9 10 9 12 -2
9 -20 -4 -38 52 -20 63 11 7 11 11 1 17 -17 11 -4 72 15 72 8 0 11 5 7 11 -10
17 18 61 37 56 11 -3 15 1 12 12 -6 23 49 55 67 38 10 -9 11 -9 6 1 -5 7 1 16
16 21 32 13 46 13 51 -1z"/>
<path d="M175 413 c-44 -23 -65 -44 -86 -85 -45 -87 -8 -193 83 -239 115 -59
258 30 258 161 0 44 -26 105 -56 131 -56 49 -141 63 -199 32z m138 -7 c44 -18
95 -78 103 -121 11 -60 -4 -106 -50 -151 -46 -46 -91 -61 -153 -49 -50 9 -119
78 -128 128 -11 55 2 103 38 144 53 60 122 78 190 49z"/>
<path d="M195 386 c-102 -44 -122 -172 -40 -245 64 -56 147 -50 204 14 53 61
50 143 -7 198 -48 46 -102 57 -157 33z m126 -24 c83 -47 81 -177 -4 -227 -79
-47 -178 0 -200 95 -6 23 -3 25 33 28 23 1 40 -2 40 -8 0 -5 -11 -10 -24 -10
-19 0 -23 -4 -19 -20 7 -27 21 -34 39 -19 19 16 31 4 15 -15 -15 -18 -8 -32
19 -39 16 -4 20 0 20 19 0 13 5 24 10 24 6 0 10 -11 10 -24 0 -19 4 -23 20
-19 27 7 34 21 19 39 -16 19 -4 31 15 15 18 -15 32 -8 39 19 4 16 0 20 -19 20
-13 0 -24 5 -24 10 0 6 11 10 24 10 19 0 23 4 19 20 -7 27 -21 34 -39 19 -19
-16 -31 -4 -15 15 15 18 8 32 -19 39 -16 4 -20 0 -20 -19 0 -13 -4 -24 -10
-24 -5 0 -10 11 -10 24 0 14 -5 28 -12 32 -7 5 -8 3 -3 -6 6 -10 2 -12 -16 -7
-16 4 -30 0 -46 -15 -22 -21 -32 -45 -14 -34 5 4 7 -4 3 -16 -5 -21 -6 -21
-13 -2 -7 19 -8 19 -9 -1 -1 -11 -4 -15 -6 -8 -8 17 23 71 48 84 56 30 98 30
149 1z m-127 -26 c-3 -8 -1 -17 5 -21 13 -7 15 -25 4 -25 -5 0 -17 8 -28 16
-20 15 -20 15 -1 30 25 17 27 18 20 0z m36 -11 c0 -8 -4 -15 -9 -15 -13 0 -22
16 -14 24 11 11 23 6 23 -9z m62 0 c0 -5 -5 -11 -11 -13 -6 -2 -11 4 -11 13 0
9 5 15 11 13 6 -2 11 -8 11 -13z m-102 -46 c0 -5 -7 -9 -15 -9 -15 0 -20 12
-9 23 8 8 24 -1 24 -14z m92 4 c22 -20 23 -41 1 -65 -20 -22 -41 -23 -65 -1
-22 20 -23 41 -1 65 20 22 41 23 65 1z m58 -4 c0 -5 -7 -9 -15 -9 -15 0 -20
12 -9 23 8 8 24 -1 24 -14z m-152 -60 c-2 -6 -8 -10 -13 -10 -5 0 -11 4 -13
10 -2 6 4 11 13 11 9 0 15 -5 13 -11z m150 0 c-5 -14 -21 -14 -26 0 -2 6 4 11
13 11 9 0 15 -5 13 -11z m-108 -44 c0 -8 -4 -15 -9 -15 -13 0 -22 16 -14 24
11 11 23 6 23 -9z m62 0 c0 -5 -5 -11 -11 -13 -6 -2 -11 4 -11 13 0 9 5 15 11
13 6 -2 11 -8 11 -13z"/>
<path d="M230 264 c-11 -12 -10 -18 3 -32 16 -15 18 -15 34 0 13 14 14 20 3
32 -7 9 -16 16 -20 16 -4 0 -13 -7 -20 -16z m36 -5 c10 -17 -13 -36 -27 -22
-12 12 -4 33 11 33 5 0 12 -5 16 -11z"/>
</g>
</svg>
