<?xml version="1.0" standalone="no"?>
<!DOCTYPE svg PUBLIC "-//W3C//DTD SVG 20010904//EN"
 "http://www.w3.org/TR/2001/REC-SVG-20010904/DTD/svg10.dtd">
<svg version="1.0" xmlns="http://www.w3.org/2000/svg"
 width="50.000000pt" height="50.000000pt" viewBox="0 0 50.000000 50.000000"
 preserveAspectRatio="xMidYMid meet">

<g transform="translate(0.000000,50.000000) scale(0.100000,-0.100000)"
fill="#fff" stroke="none">
<path d="M4 419 c-3 -6 -1 -22 7 -35 10 -20 10 -29 -1 -49 -12 -22 -12 -30 3
-54 21 -36 22 -47 2 -31 -11 9 -15 9 -15 1 0 -17 30 -25 43 -12 8 8 8 14 0 22
-9 9 -9 16 0 30 9 15 9 24 -1 40 -24 38 -7 29 42 -20 55 -55 56 -78 4 -83
l-33 -3 0 -60 c0 -52 3 -60 20 -63 11 -3 24 -10 28 -18 11 -19 61 -18 77 1 9
11 34 15 95 15 61 0 86 -4 95 -15 18 -21 57 -19 77 5 10 11 25 20 35 20 16 0
17 7 12 63 -8 86 -7 85 -58 92 -39 6 -48 12 -63 44 -17 34 -20 36 -68 36 l-50
0 -5 -60 c-6 -65 -18 -57 -22 15 -3 44 -3 45 -39 45 -26 0 -50 11 -92 43 -57
43 -80 51 -93 31z m99 -57 c31 -25 57 -46 57 -48 0 -1 -3 -9 -6 -18 -5 -12
-20 -3 -70 42 -35 31 -64 63 -64 70 0 16 8 11 83 -46z m115 -79 c-3 -46 -4
-48 -35 -51 -38 -4 -39 -1 -15 55 11 28 23 43 35 43 15 0 18 -7 15 -47z m74
15 c3 -32 4 -33 58 -38 61 -6 80 -14 80 -36 0 -8 9 -14 20 -14 15 0 20 -7 20
-26 0 -25 -2 -26 -36 -21 -29 5 -40 2 -60 -18 -18 -18 -36 -25 -64 -25 l-40 0
0 105 c0 59 4 105 9 105 6 0 11 -15 13 -32z m66 7 c16 -35 16 -37 -15 -33 -22
2 -29 9 -31 31 -4 36 30 38 46 2z m110 -74 c3 -8 -1 -12 -9 -9 -7 2 -15 10
-17 17 -3 8 1 12 9 9 7 -2 15 -10 17 -17z m-218 -61 c0 -46 -2 -50 -25 -50
-13 0 -35 11 -49 25 -14 14 -30 25 -36 25 -6 0 -21 -11 -34 -25 -13 -14 -26
-25 -30 -25 -3 0 -6 23 -6 50 l0 50 90 0 90 0 0 -50z m-82 -51 c4 -30 -22 -46
-44 -28 -17 14 -18 46 -1 52 25 11 42 1 45 -24z m256 25 c20 -8 21 -38 2 -53
-19 -16 -46 -3 -46 23 0 34 12 42 44 30z m56 -14 c0 -5 -4 -10 -9 -10 -6 0
-13 5 -16 10 -3 6 1 10 9 10 9 0 16 -4 16 -10z"/>
</g>
</svg>
