<?xml version="1.0" standalone="no"?>
<!DOCTYPE svg PUBLIC "-//W3C//DTD SVG 20010904//EN"
 "http://www.w3.org/TR/2001/REC-SVG-20010904/DTD/svg10.dtd">
<svg version="1.0" xmlns="http://www.w3.org/2000/svg"
 width="50.000000pt" height="50.000000pt" viewBox="0 0 50.000000 50.000000"
 preserveAspectRatio="xMidYMid meet">

<g transform="translate(0.000000,50.000000) scale(0.100000,-0.100000)"
fill="#fff" stroke="none">
<path d="M20 460 c0 -13 7 -20 20 -20 13 0 20 7 20 20 0 13 -7 20 -20 20 -13
0 -20 -7 -20 -20z"/>
<path d="M174 457 c-19 -22 -19 -22 1 -42 l20 -20 21 21 21 21 -22 21 -21 20
-20 -21z"/>
<path d="M303 464 c-8 -21 13 -42 28 -27 13 13 5 43 -11 43 -6 0 -13 -7 -17
-16z"/>
<path d="M414 434 l-20 -21 24 -22 c27 -24 32 -26 32 -10 0 7 6 17 13 23 11 9
10 15 -7 31 l-21 21 -21 -22z m36 -18 c0 -3 -4 -8 -10 -11 -5 -3 -10 -1 -10 4
0 6 5 11 10 11 6 0 10 -2 10 -4z"/>
<path d="M75 411 c-4 -12 -19 -27 -33 -33 -26 -10 -26 -10 -6 -18 12 -5 29
-18 37 -30 l15 -22 12 22 c6 11 21 25 33 30 l22 9 -23 7 c-12 3 -29 18 -36 32
l-13 26 -8 -23z m25 -55 c-13 -13 -35 7 -25 24 5 8 11 8 21 -1 10 -8 12 -15 4
-23z"/>
<path d="M186 346 c-28 -30 -56 -48 -86 -57 -61 -17 -80 -35 -80 -76 0 -25 4
-33 18 -33 11 0 27 -9 37 -20 23 -25 50 -26 67 -1 7 10 22 21 33 23 20 5 20 5
0 13 -11 5 -24 14 -28 22 -11 18 -66 17 -73 -2 -4 -8 -15 -15 -27 -15 -18 0
-18 2 7 25 14 13 26 28 26 33 0 5 18 14 39 21 26 7 51 25 71 51 l32 40 77 0
c88 0 108 -12 120 -72 5 -24 13 -34 29 -36 17 -3 22 -10 22 -32 l0 -29 -36 24
c-20 14 -50 25 -66 25 -30 0 -88 -28 -88 -42 0 -4 -9 -8 -19 -8 -11 0 -23 -4
-26 -10 -3 -5 0 -10 8 -10 9 0 12 -9 9 -30 -10 -70 43 -130 115 -130 38 0 50
5 79 34 l34 34 0 101 c0 98 -1 102 -25 113 -13 6 -27 19 -30 29 -13 40 -54 59
-128 59 -71 0 -71 0 -111 -44z m269 -66 c3 -5 1 -10 -4 -10 -6 0 -11 5 -11 10
0 6 2 10 4 10 3 0 8 -4 11 -10z m-400 -39 c-3 -6 -11 -11 -17 -11 -6 0 -6 6 2
15 14 17 26 13 15 -4z m366 -21 c10 -6 26 -25 35 -42 44 -85 -49 -178 -134
-134 -59 30 -71 102 -26 155 21 25 33 31 66 31 21 0 48 -5 59 -10z m-291 -15
c18 -21 5 -47 -22 -43 -26 3 -37 36 -16 49 18 12 24 11 38 -6z"/>
<path d="M375 200 c-7 -12 5 -60 15 -60 10 0 20 26 20 51 0 20 -24 26 -35 9z"/>
<path d="M303 184 c-7 -18 14 -41 42 -46 15 -2 19 2 17 17 -8 42 -46 61 -59
29z m34 -20 c-9 -9 -28 6 -21 18 4 6 10 6 17 -1 6 -6 8 -13 4 -17z"/>
<path d="M297 124 c-15 -15 -6 -34 16 -34 24 0 55 16 47 24 -10 9 -56 17 -63
10z"/>
<path d="M380 115 c-10 -13 -10 -19 5 -35 10 -11 23 -20 28 -20 6 0 2 9 -8 20
-24 26 -11 39 15 15 11 -10 20 -14 20 -8 0 10 -32 43 -42 43 -3 0 -11 -7 -18
-15z"/>
<path d="M210 328 c-11 -18 -20 -36 -20 -40 0 -5 47 -8 105 -8 67 0 105 4 105
10 0 6 -7 24 -15 40 -15 29 -18 30 -85 30 -69 0 -71 -1 -90 -32z m80 -8 c0
-17 -7 -20 -40 -20 -38 0 -39 1 -28 20 8 12 24 20 40 20 21 0 28 -5 28 -20z
m80 16 c0 -2 3 -11 6 -20 5 -13 -2 -16 -35 -16 -34 0 -41 3 -41 20 0 16 7 20
35 20 19 0 35 -2 35 -4z"/>
<path d="M245 260 c-3 -5 1 -10 9 -10 9 0 16 5 16 10 0 6 -4 10 -9 10 -6 0
-13 -4 -16 -10z"/>
<path d="M188 239 c-17 -18 -16 -20 6 -44 23 -24 24 -25 29 -5 3 11 13 20 23
20 13 0 12 5 -10 25 -15 14 -28 25 -29 24 -1 0 -10 -9 -19 -20z m32 -19 c0 -5
-4 -10 -10 -10 -5 0 -10 5 -10 10 0 6 5 10 10 10 6 0 10 -4 10 -10z"/>
<path d="M73 113 c32 -2 81 -2 110 0 29 2 3 3 -58 3 -60 0 -84 -1 -52 -3z"/>
<path d="M20 80 c0 -6 43 -10 110 -10 67 0 110 4 110 10 0 6 -43 10 -110 10
-67 0 -110 -4 -110 -10z"/>
</g>
</svg>
